PathFileType	4	(X/Y/Z)	Patient4_TMGait_0pt2_03_right_06.trc.trc
DataRate	CameraRate	NumFrames	NumMarkers	Units	OrigDataRate	OrigDataStartFrame	OrigNumFrames
46.666666666667	46.666666666667	4	33	mm	46.666666666667	1	       141
Frame#	Time	Sacral			L.Shoulder			Chest			R.Shoulder			Neck			R.ASIS			L.ASIS			R.Thigh.Superior			R.Thigh.Lateral			R.Thigh.Inferior			R.Patella			L.Thigh.Superior			L.Thigh.Lateral			L.Thigh.Inferior			L.Patella			L.Shank.Superior			L.Shank.Lateral			L.Shank.Inferior			R.Shank.Superior			R.Shank.Lateral			R.Shank.Inferior			R.Heel			R.Midfoot.Superior			R.Midfoot.Lateral			R.Toe			L.Heel			L.Midfoot.Lateral			L.Midfoot.Superior			L.Toe			L.Elbow			L.Wrist			R.Elbow			R.Wrist			
		X1	Y1	Z1	X2	Y2	Z2	X3	Y3	Z3	X4	Y4	Z4	X5	Y5	Z5	X6	Y6	Z6	X7	Y7	Z7	X8	Y8	Z8	X9	Y9	Z9	X10	Y10	Z10	X11	Y11	Z11	X12	Y12	Z12	X13	Y13	Z13	X14	Y14	Z14	X15	Y15	Z15	X16	Y16	Z16	X17	Y17	Z17	X18	Y18	Z18	X19	Y19	Z19	X20	Y20	Z20	X21	Y21	Z21	X22	Y22	Z22	X23	Y23	Z23	X24	Y24	Z24	X25	Y25	Z25	X26	Y26	Z26	X27	Y27	Z27	X28	Y28	Z28	X29	Y29	Z29	X30	Y30	Z30	X31	Y31	Z31	X32	Y32	Z32	X33	Y33	Z33	

1	12.710000000000	844.966213131970	1020.853037753496	411.751297115589	1064.890228504150	1419.909137599069	205.279986493234	1163.319761603698	1344.582013367989	365.585263173922	1101.173614540748	1438.039116676641	536.573235749481	1073.362469337626	1490.514072360189	356.666790890167	1072.841726603293	940.870007465414	520.614312676838	1049.157753751092	955.248641919313	248.367079705061	1124.185624651240	748.954723066334	483.700589438575	1061.370503154991	633.369991267195	555.482711461435	1138.491834040959	581.530242239266	471.901250888604	1139.047066158274	472.236021304985	490.351602175324	1100.421909034872	755.887578046659	269.207132794047	1016.618638566624	633.837171115313	217.049484847202	1112.970610014773	565.794368469435	274.380525300122	1118.047210621323	496.032812501914	281.739310172741	1093.506399597573	422.843680793883	277.769769456391	1004.287663102619	304.239311579677	233.490351097676	1065.492116706440	196.691750093046	305.091534763684	1064.260793687944	403.729649188507	499.901743955764	950.394259854058	358.431495491286	570.065734858588	935.471333523620	251.549486724330	516.766600295732	732.539516173318	171.213302167038	503.748499598111	911.805465587631	139.512776687587	532.000400619875	805.881165832454	122.647000383153	572.243829499580	994.246282211571	39.564642448578	552.095596649272	943.032359618693	38.272665815349	351.086211220696	1019.647452747732	35.034356595234	272.435420660727	1101.601165582385	98.363220204247	299.417112400216	1231.010264212053	47.721665408646	278.527867586238	1044.816992183138	1069.361724548805	80.498281578550	1106.042046441187	813.285206975242	87.503104694902	1137.059164591837	1084.831633452289	650.655401331321	1342.926327297372	943.968533182467	571.988697252383	
2	12.731428571429	843.379376643457	1016.884244801254	409.944749261012	1062.593907450009	1416.835071036899	203.840893749205	1161.363332840263	1341.567200733410	364.023520259364	1099.238347024997	1434.463076039182	535.314405764162	1071.454414357036	1487.356248704276	355.280777292819	1071.451192561941	937.565568897854	518.143851274059	1048.734214598534	953.174936201320	245.716222881056	1127.190426355745	748.819787657135	480.407511229256	1067.667390692627	631.799602700909	551.592927434335	1145.691388197413	582.154730141677	467.285241810644	1148.077850400812	471.403267000789	485.508801957160	1103.961316175206	755.134942063928	269.797188478867	1023.589311622687	631.375985786907	217.364152217956	1119.403938734290	564.550267688079	277.368129836119	1125.328755779936	494.006028448480	285.065786194447	1099.062449743100	420.277767280633	280.735367770837	1008.872884530634	303.583790857337	233.982088948529	1064.915368154013	195.106187261734	306.912806336862	1071.223514438422	403.300484257282	494.799844097472	955.014037859434	362.087038993163	563.462039228171	937.196779018778	255.676043110023	510.436531964091	732.298949314772	182.660968430351	495.196183759159	909.600998003310	144.182924302404	525.115490750272	802.917661842801	131.101726625721	564.126198214247	988.096166635136	41.224501509122	545.561303397839	938.784110032106	38.392739710790	350.982098653069	1015.426337658337	35.141480537995	272.425155131074	1097.587792349460	97.869204055628	300.145607757361	1226.900216480030	46.985081146315	278.672658606111	1053.647909326360	1066.022924525452	80.500508063771	1129.978618602479	815.631120373956	89.899738502041	1121.005893921376	1080.456661075034	650.112356070784	1301.714512411470	914.928964714978	582.968150125561	
3	12.752857142857	841.760932921727	1012.515016277340	407.978747824747	1060.277788940695	1413.440096535529	202.452951662882	1159.319302986738	1338.231702482414	362.557881435410	1097.084697937778	1430.517084863987	534.141801846691	1069.445212739690	1483.884858892216	353.967152597052	1069.999676568896	933.965691180635	515.800760002292	1048.460472169970	950.786523057848	243.149598473471	1130.136126125560	748.354045248244	477.232195778637	1073.954841084917	629.991178670779	547.765848342061	1152.796302346359	582.539975084054	462.640889265175	1157.114598795754	470.400114970156	480.695619908814	1107.695884780527	754.197168055100	270.672242838739	1030.963739246482	628.683637093152	217.788870554245	1126.173052252808	563.174362106068	280.587546899572	1132.997598346886	491.809822920188	288.609130036572	1104.917732205795	417.478803473145	283.860908990713	1013.636239899559	302.832958039069	234.630916196061	1064.343773282917	193.382393800285	308.795115717952	1078.322069463380	402.589334735695	489.819460823271	959.813661767418	365.163543063391	556.909670836478	939.495305570795	259.071681613085	504.276879418288	732.811032105297	192.590355985450	486.638105661561	908.307572418313	148.089334764330	518.565878867093	800.826242952292	138.445155946496	556.205743371044	983.217836465993	42.444810436742	539.694569025637	934.399508954891	38.513525341322	350.872855755371	1011.075892976360	35.253036877428	272.416077334532	1093.451965383676	97.372636824918	300.899078894860	1222.661400079745	46.216918097893	278.821052870930	1062.376718201468	1062.450923697382	80.512330410203	1154.590183079580	818.610822526443	92.711756756766	1104.500609722055	1076.035593119826	649.912489971711	1259.129771363629	886.874838282215	594.520362894086	
4	12.774285714286	840.146455070134	1007.835887266981	405.879465488867	1058.057532950194	1409.784880036316	201.204819617203	1157.237032518921	1334.638191701974	361.314089722626	1094.697071998215	1426.285370821376	533.148113646502	1067.385422227536	1480.170977085258	352.813205861716	1068.497117765485	930.153708845406	513.745329569634	1048.396554381812	948.095930752049	240.811720378606	1132.858990892855	747.523878625100	474.355097598756	1079.948210654858	627.986336051113	544.206241487639	1159.474997823766	582.643168912723	458.191646881587	1165.801432599497	469.281488483989	476.168501195438	1111.512099191059	753.059158469096	271.879099544365	1038.516675669270	625.807868086527	218.353329265316	1133.053962115579	561.680679939404	283.987229491634	1140.797321726470	489.487610249209	292.306631420567	1110.862644596339	414.497842363587	287.082233367454	1018.387937825974	301.992494199775	235.461303451672	1063.751359856678	191.553981160768	310.686237941980	1085.363359084457	401.583594371522	485.270157956412	964.734727812490	367.330787080461	550.767387566860	942.603846537469	261.338383183591	498.682788271234	734.504472930045	199.947663368676	478.525692406470	908.486189338929	150.809104085136	512.838071298861	800.202439488917	143.930501807831	548.984698958399	980.494562324466	43.091011284222	535.085814319665	929.968734190941	38.630362164110	350.760111646998	1006.687786555165	35.365106915891	272.407928690389	1089.278373067626	96.892916839252	301.653267876314	1218.380627587671	45.439586971670	278.967871969938	1070.684413560698	1058.755169554355	80.555520490961	1179.205605889016	822.468140448969	96.037840416399	1087.889717066287	1071.846894263981	650.213900058382	1216.262788765052	861.365077303733	606.420275792953	
